# xmcd
#
# Track frame offsets:
# 150
# 12099
# 23557
# 36369
# 49632
# 68835
# 84981
# 94510
# 106268
# 122453
# 134020
# 151786
#
# Disc length: 2208 seconds
#
#
# Revision: 1
# Processed by: cddbd v1.4PL0 Copyright (c) Steve Scherf et al.
# Submitted via: FreeRIP 2.11 
#
DISCID=86089e0c
DTITLE=Blue Moon Rising - Where Wood Meets Steel
DYEAR=2002
DGENRE=Bluegrass
TTITLE0=Dead Man On the Run
TTITLE1=Locust Hill
TTITLE2=Moonshine Hard Time
TTITLE3=Papa Made a Livin'
TTITLE4=Behind the Scenes
TTITLE5=Take Me Back to Old Kentucky
TTITLE6=My Turn
TTITLE7=I Don't Want to Hear It
TTITLE8=Highway of Despair
TTITLE9=A Boy Like Me
TTITLE10=When the Mountain Fell Down
TTITLE11=You Are Not Alone
EXTD=
EXTT0=
EXTT1=
EXTT2=
EXTT3=
EXTT4=
EXTT5=
EXTT6=
EXTT7=
EXTT8=
EXTT9=
EXTT10=
EXTT11=
PLAYORDER=
